<mxfile host="app.diagrams.net" modified="2022-02-21T12:55:51.503Z" agent="5.0 (X11; Linux x86_64) AppleWebKit/537.36 (KHTML, like Gecko) Chrome/98.0.4758.102 Safari/537.36" etag="vc5l40p_dRtMy2EptKGR" version="16.6.1" type="github">
  <diagram id="C5RBs43oDa-KdzZeNtuy" name="Page-1">
    <mxGraphModel dx="1350" dy="777" grid="1" gridSize="10" guides="1" tooltips="1" connect="1" arrows="1" fold="1" page="1" pageScale="1" pageWidth="1169" pageHeight="827" math="0" shadow="0">
      <root>
        <mxCell id="WIyWlLk6GJQsqaUBKTNV-0" />
        <mxCell id="WIyWlLk6GJQsqaUBKTNV-1" parent="WIyWlLk6GJQsqaUBKTNV-0" />
        <mxCell id="WIyWlLk6GJQsqaUBKTNV-3" value="" style="rounded=1;whiteSpace=wrap;html=1;fontSize=12;glass=0;strokeWidth=1;shadow=0;arcSize=0;" parent="WIyWlLk6GJQsqaUBKTNV-1" vertex="1">
          <mxGeometry x="160" y="80" width="790" height="590" as="geometry" />
        </mxCell>
        <mxCell id="07JmAFrsK78R80ROE_Ke-20" style="edgeStyle=orthogonalEdgeStyle;rounded=0;orthogonalLoop=1;jettySize=auto;html=1;exitX=0.5;exitY=1;exitDx=0;exitDy=0;fontSize=16;" edge="1" parent="WIyWlLk6GJQsqaUBKTNV-1" source="07JmAFrsK78R80ROE_Ke-0" target="07JmAFrsK78R80ROE_Ke-16">
          <mxGeometry relative="1" as="geometry" />
        </mxCell>
        <mxCell id="07JmAFrsK78R80ROE_Ke-0" value="&lt;font size=&quot;3&quot;&gt;Route path=&quot;/&quot;&lt;/font&gt;" style="rounded=1;whiteSpace=wrap;html=1;" vertex="1" parent="WIyWlLk6GJQsqaUBKTNV-1">
          <mxGeometry x="190" y="354" width="160" height="60" as="geometry" />
        </mxCell>
        <mxCell id="07JmAFrsK78R80ROE_Ke-22" style="edgeStyle=orthogonalEdgeStyle;rounded=0;orthogonalLoop=1;jettySize=auto;html=1;exitX=0.5;exitY=1;exitDx=0;exitDy=0;entryX=0.5;entryY=0;entryDx=0;entryDy=0;fontSize=16;" edge="1" parent="WIyWlLk6GJQsqaUBKTNV-1" source="07JmAFrsK78R80ROE_Ke-1" target="07JmAFrsK78R80ROE_Ke-17">
          <mxGeometry relative="1" as="geometry" />
        </mxCell>
        <mxCell id="07JmAFrsK78R80ROE_Ke-1" value="&lt;font size=&quot;3&quot;&gt;Route path=&quot;/fiche-logement/:housingId&quot;&lt;/font&gt;" style="rounded=1;whiteSpace=wrap;html=1;" vertex="1" parent="WIyWlLk6GJQsqaUBKTNV-1">
          <mxGeometry x="380" y="354" width="160" height="60" as="geometry" />
        </mxCell>
        <mxCell id="07JmAFrsK78R80ROE_Ke-23" style="edgeStyle=orthogonalEdgeStyle;rounded=0;orthogonalLoop=1;jettySize=auto;html=1;exitX=0.5;exitY=1;exitDx=0;exitDy=0;entryX=0.5;entryY=0;entryDx=0;entryDy=0;fontSize=16;" edge="1" parent="WIyWlLk6GJQsqaUBKTNV-1" source="07JmAFrsK78R80ROE_Ke-2" target="07JmAFrsK78R80ROE_Ke-18">
          <mxGeometry relative="1" as="geometry" />
        </mxCell>
        <mxCell id="07JmAFrsK78R80ROE_Ke-2" value="&lt;span style=&quot;font-size: medium&quot;&gt;Route path=&quot;/a-propos&quot;&lt;/span&gt;" style="rounded=1;whiteSpace=wrap;html=1;" vertex="1" parent="WIyWlLk6GJQsqaUBKTNV-1">
          <mxGeometry x="570" y="354" width="160" height="60" as="geometry" />
        </mxCell>
        <mxCell id="07JmAFrsK78R80ROE_Ke-24" style="edgeStyle=orthogonalEdgeStyle;rounded=0;orthogonalLoop=1;jettySize=auto;html=1;exitX=0.5;exitY=1;exitDx=0;exitDy=0;entryX=0.5;entryY=0;entryDx=0;entryDy=0;fontSize=16;" edge="1" parent="WIyWlLk6GJQsqaUBKTNV-1" source="07JmAFrsK78R80ROE_Ke-3" target="07JmAFrsK78R80ROE_Ke-19">
          <mxGeometry relative="1" as="geometry" />
        </mxCell>
        <mxCell id="07JmAFrsK78R80ROE_Ke-3" value="&lt;span style=&quot;font-size: medium&quot;&gt;Route path=&quot;*&quot;&lt;/span&gt;" style="rounded=1;whiteSpace=wrap;html=1;" vertex="1" parent="WIyWlLk6GJQsqaUBKTNV-1">
          <mxGeometry x="760" y="354" width="160" height="60" as="geometry" />
        </mxCell>
        <UserObject label="&lt;font style=&quot;font-size: 24px&quot;&gt;index.jsx&lt;/font&gt;" link="Index.jsx" id="07JmAFrsK78R80ROE_Ke-4">
          <mxCell style="text;whiteSpace=wrap;html=1;" vertex="1" parent="WIyWlLk6GJQsqaUBKTNV-1">
            <mxGeometry x="160" y="40" width="70" height="30" as="geometry" />
          </mxCell>
        </UserObject>
        <mxCell id="07JmAFrsK78R80ROE_Ke-9" style="edgeStyle=orthogonalEdgeStyle;rounded=0;orthogonalLoop=1;jettySize=auto;html=1;exitX=0.5;exitY=1;exitDx=0;exitDy=0;fontSize=24;" edge="1" parent="WIyWlLk6GJQsqaUBKTNV-1" source="07JmAFrsK78R80ROE_Ke-6" target="07JmAFrsK78R80ROE_Ke-7">
          <mxGeometry relative="1" as="geometry" />
        </mxCell>
        <mxCell id="07JmAFrsK78R80ROE_Ke-6" value="BrowserRouter" style="rounded=1;whiteSpace=wrap;html=1;fontSize=24;" vertex="1" parent="WIyWlLk6GJQsqaUBKTNV-1">
          <mxGeometry x="190" y="100" width="730" height="60" as="geometry" />
        </mxCell>
        <mxCell id="07JmAFrsK78R80ROE_Ke-10" style="edgeStyle=orthogonalEdgeStyle;rounded=0;orthogonalLoop=1;jettySize=auto;html=1;exitX=0.5;exitY=1;exitDx=0;exitDy=0;fontSize=24;" edge="1" parent="WIyWlLk6GJQsqaUBKTNV-1" source="07JmAFrsK78R80ROE_Ke-7" target="07JmAFrsK78R80ROE_Ke-0">
          <mxGeometry relative="1" as="geometry" />
        </mxCell>
        <mxCell id="07JmAFrsK78R80ROE_Ke-11" style="edgeStyle=orthogonalEdgeStyle;rounded=0;orthogonalLoop=1;jettySize=auto;html=1;fontSize=24;" edge="1" parent="WIyWlLk6GJQsqaUBKTNV-1" source="07JmAFrsK78R80ROE_Ke-7" target="07JmAFrsK78R80ROE_Ke-1">
          <mxGeometry relative="1" as="geometry" />
        </mxCell>
        <mxCell id="07JmAFrsK78R80ROE_Ke-12" style="edgeStyle=orthogonalEdgeStyle;rounded=0;orthogonalLoop=1;jettySize=auto;html=1;entryX=0.5;entryY=0;entryDx=0;entryDy=0;fontSize=24;" edge="1" parent="WIyWlLk6GJQsqaUBKTNV-1" source="07JmAFrsK78R80ROE_Ke-7" target="07JmAFrsK78R80ROE_Ke-2">
          <mxGeometry relative="1" as="geometry" />
        </mxCell>
        <mxCell id="07JmAFrsK78R80ROE_Ke-13" style="edgeStyle=orthogonalEdgeStyle;rounded=0;orthogonalLoop=1;jettySize=auto;html=1;entryX=0.5;entryY=0;entryDx=0;entryDy=0;fontSize=24;" edge="1" parent="WIyWlLk6GJQsqaUBKTNV-1" source="07JmAFrsK78R80ROE_Ke-7" target="07JmAFrsK78R80ROE_Ke-3">
          <mxGeometry relative="1" as="geometry" />
        </mxCell>
        <mxCell id="07JmAFrsK78R80ROE_Ke-7" value="Component Header" style="rounded=1;whiteSpace=wrap;html=1;fontSize=24;arcSize=0;" vertex="1" parent="WIyWlLk6GJQsqaUBKTNV-1">
          <mxGeometry x="190" y="200" width="730" height="60" as="geometry" />
        </mxCell>
        <mxCell id="07JmAFrsK78R80ROE_Ke-14" value="Routes" style="rounded=1;whiteSpace=wrap;html=1;fontSize=24;" vertex="1" parent="WIyWlLk6GJQsqaUBKTNV-1">
          <mxGeometry x="495" y="270" width="120" height="60" as="geometry" />
        </mxCell>
        <mxCell id="07JmAFrsK78R80ROE_Ke-26" style="edgeStyle=orthogonalEdgeStyle;rounded=0;orthogonalLoop=1;jettySize=auto;html=1;exitX=0.5;exitY=1;exitDx=0;exitDy=0;entryX=0.5;entryY=0;entryDx=0;entryDy=0;fontSize=16;" edge="1" parent="WIyWlLk6GJQsqaUBKTNV-1" source="07JmAFrsK78R80ROE_Ke-16" target="07JmAFrsK78R80ROE_Ke-25">
          <mxGeometry relative="1" as="geometry" />
        </mxCell>
        <mxCell id="07JmAFrsK78R80ROE_Ke-16" value="&lt;font size=&quot;3&quot;&gt;Page &quot;Home&quot;&lt;/font&gt;" style="rounded=1;whiteSpace=wrap;html=1;arcSize=0;" vertex="1" parent="WIyWlLk6GJQsqaUBKTNV-1">
          <mxGeometry x="190" y="450" width="160" height="60" as="geometry" />
        </mxCell>
        <mxCell id="07JmAFrsK78R80ROE_Ke-27" style="edgeStyle=orthogonalEdgeStyle;rounded=0;orthogonalLoop=1;jettySize=auto;html=1;exitX=0.5;exitY=1;exitDx=0;exitDy=0;fontSize=16;" edge="1" parent="WIyWlLk6GJQsqaUBKTNV-1" source="07JmAFrsK78R80ROE_Ke-17" target="07JmAFrsK78R80ROE_Ke-25">
          <mxGeometry relative="1" as="geometry" />
        </mxCell>
        <mxCell id="07JmAFrsK78R80ROE_Ke-17" value="&lt;font size=&quot;3&quot;&gt;Page &quot;HousingSheet&quot;&lt;/font&gt;" style="rounded=1;whiteSpace=wrap;html=1;arcSize=0;" vertex="1" parent="WIyWlLk6GJQsqaUBKTNV-1">
          <mxGeometry x="380" y="450" width="160" height="60" as="geometry" />
        </mxCell>
        <mxCell id="07JmAFrsK78R80ROE_Ke-28" style="edgeStyle=orthogonalEdgeStyle;rounded=0;orthogonalLoop=1;jettySize=auto;html=1;exitX=0.5;exitY=1;exitDx=0;exitDy=0;fontSize=16;" edge="1" parent="WIyWlLk6GJQsqaUBKTNV-1" source="07JmAFrsK78R80ROE_Ke-18" target="07JmAFrsK78R80ROE_Ke-25">
          <mxGeometry relative="1" as="geometry" />
        </mxCell>
        <mxCell id="07JmAFrsK78R80ROE_Ke-18" value="&lt;span style=&quot;font-size: medium&quot;&gt;Page &quot;About&quot;&lt;/span&gt;" style="rounded=1;whiteSpace=wrap;html=1;arcSize=0;" vertex="1" parent="WIyWlLk6GJQsqaUBKTNV-1">
          <mxGeometry x="570" y="450" width="160" height="60" as="geometry" />
        </mxCell>
        <mxCell id="07JmAFrsK78R80ROE_Ke-29" style="edgeStyle=orthogonalEdgeStyle;rounded=0;orthogonalLoop=1;jettySize=auto;html=1;exitX=0.5;exitY=1;exitDx=0;exitDy=0;fontSize=16;" edge="1" parent="WIyWlLk6GJQsqaUBKTNV-1" source="07JmAFrsK78R80ROE_Ke-19" target="07JmAFrsK78R80ROE_Ke-25">
          <mxGeometry relative="1" as="geometry" />
        </mxCell>
        <mxCell id="07JmAFrsK78R80ROE_Ke-19" value="&lt;span style=&quot;font-size: medium&quot;&gt;Page &quot;Error&quot;&lt;/span&gt;" style="rounded=1;whiteSpace=wrap;html=1;arcSize=0;" vertex="1" parent="WIyWlLk6GJQsqaUBKTNV-1">
          <mxGeometry x="760" y="450" width="160" height="60" as="geometry" />
        </mxCell>
        <mxCell id="07JmAFrsK78R80ROE_Ke-25" value="Component Footer" style="rounded=1;whiteSpace=wrap;html=1;fontSize=24;arcSize=0;" vertex="1" parent="WIyWlLk6GJQsqaUBKTNV-1">
          <mxGeometry x="190" y="590" width="730" height="60" as="geometry" />
        </mxCell>
        <mxCell id="07JmAFrsK78R80ROE_Ke-30" value="Home.jsx" style="text;html=1;align=center;verticalAlign=middle;resizable=0;points=[];autosize=1;strokeColor=none;fillColor=none;fontSize=16;" vertex="1" parent="WIyWlLk6GJQsqaUBKTNV-1">
          <mxGeometry x="190" y="430" width="80" height="20" as="geometry" />
        </mxCell>
        <mxCell id="07JmAFrsK78R80ROE_Ke-31" value="HousingSheet.jsx" style="text;html=1;align=center;verticalAlign=middle;resizable=0;points=[];autosize=1;strokeColor=none;fillColor=none;fontSize=16;" vertex="1" parent="WIyWlLk6GJQsqaUBKTNV-1">
          <mxGeometry x="320" y="430" width="140" height="20" as="geometry" />
        </mxCell>
        <mxCell id="07JmAFrsK78R80ROE_Ke-32" value="Error.jsx" style="text;html=1;align=center;verticalAlign=middle;resizable=0;points=[];autosize=1;strokeColor=none;fillColor=none;fontSize=16;" vertex="1" parent="WIyWlLk6GJQsqaUBKTNV-1">
          <mxGeometry x="770" y="430" width="70" height="20" as="geometry" />
        </mxCell>
        <mxCell id="07JmAFrsK78R80ROE_Ke-33" value="About.jsx" style="text;html=1;align=center;verticalAlign=middle;resizable=0;points=[];autosize=1;strokeColor=none;fillColor=none;fontSize=16;" vertex="1" parent="WIyWlLk6GJQsqaUBKTNV-1">
          <mxGeometry x="570" y="430" width="80" height="20" as="geometry" />
        </mxCell>
        <UserObject label="&lt;span style=&quot;font-size: 24px&quot;&gt;Header.jsx&lt;/span&gt;" link="Index.jsx" id="07JmAFrsK78R80ROE_Ke-34">
          <mxCell style="text;whiteSpace=wrap;html=1;" vertex="1" parent="WIyWlLk6GJQsqaUBKTNV-1">
            <mxGeometry x="190" y="160" width="70" height="40" as="geometry" />
          </mxCell>
        </UserObject>
        <UserObject label="&lt;span style=&quot;font-size: 24px&quot;&gt;Footer.jsx&lt;/span&gt;" link="Index.jsx" id="07JmAFrsK78R80ROE_Ke-36">
          <mxCell style="text;whiteSpace=wrap;html=1;" vertex="1" parent="WIyWlLk6GJQsqaUBKTNV-1">
            <mxGeometry x="190" y="550" width="70" height="40" as="geometry" />
          </mxCell>
        </UserObject>
      </root>
    </mxGraphModel>
  </diagram>
</mxfile>
